<svg width="current" height="current" viewBox="0 0 28 28" fill="none" xmlns="http://www.w3.org/2000/svg">
<g id="linkedin">
<path id="back" fill-rule="evenodd" clip-rule="evenodd" d="M0 14C0 6.26801 6.26801 0 14 0C21.732 0 28 6.26801 28 14C28 21.732 21.732 28 14 28C6.26801 28 0 21.732 0 14Z" fill="#DDDDDD"/>
<path id="Shape" fill-rule="evenodd" clip-rule="evenodd" d="M10.5446 8.63162C10.5242 7.70544 9.86039 7 8.78253 7C7.70467 7 7 7.70544 7 8.63162C7 9.53862 7.68384 10.2644 8.74163 10.2644H8.76177C9.86039 10.2644 10.5446 9.53862 10.5446 8.63162ZM10.3371 11.5537H7.18631V20.9997H10.3371V11.5537ZM18.0723 11.3319C20.1456 11.3319 21.7 12.6822 21.7 15.5837L21.6999 20.9997H18.5492V15.9461C18.5492 14.6767 18.0933 13.8105 16.9527 13.8105C16.0822 13.8105 15.5637 14.3945 15.336 14.9585C15.2527 15.1606 15.2323 15.4422 15.2323 15.7245V21H12.0811C12.0811 21 12.1226 12.4403 12.0811 11.5539H15.2323V12.8919C15.6504 12.2487 16.3994 11.3319 18.0723 11.3319Z" fill="white"/>
</g>
</svg>
