<svg width="current" height="current" viewBox="0 0 249 25" fill="none" xmlns="http://www.w3.org/2000/svg">
<path d="M65.4607 5.05463C63.4676 5.05463 61.8872 6.00797 61.2026 7.81228H61.1482V5.32656H56.6407V9.15272C55.5753 6.60621 53.3232 4.91707 49.9417 4.91707C46.8513 4.91707 44.1544 6.61901 42.958 9.25189C42.1166 6.77576 40.2611 4.91707 37.1579 4.91707C35.52 4.91707 34.1508 5.62728 33.2518 6.96452H33.1974V5.32656H25.6858L23.0082 14.5593H22.9538L20.2793 5.32656H16.8658V0H11.7824V7.10208H5.08342V0H0V19.5051H5.08342V11.4721H11.7728V19.5051H16.8562V9.37666L19.0125 15.1863C19.2876 15.9477 20.1897 18.1359 20.1897 18.9005C20.1897 19.8826 19.3963 20.484 18.331 20.484H16.8594V24.2558H18.9069C22.0452 24.2558 23.7152 23.8751 24.8349 20.7592L28.7666 9.92371V24.259H33.4118V17.9759H33.4661C34.4227 19.2588 35.7599 19.9114 37.5098 19.9114C40.3443 19.9114 42.1582 18.1711 42.9804 15.8485C44.1448 18.4526 46.7106 19.9114 50.0504 19.9114C52.7921 19.9114 55.4314 18.8493 56.6407 16.4403V19.5051H61.2858V12.4862C61.2858 10.7107 62.4855 9.12073 64.7857 9.12073C65.4127 9.12073 65.9565 9.2295 66.5612 9.39905V5.1634C66.2061 5.08022 65.8222 5.05463 65.4671 5.05463H65.4607ZM36.0638 16.3636C33.9588 16.3636 33.2486 14.7512 33.2486 12.2655C33.2486 9.34147 34.8322 8.4681 36.0894 8.4681C38.1401 8.4681 38.8503 10.458 38.8503 12.2655C38.8503 14.2042 38.1433 16.3636 36.0638 16.3636ZM49.9417 8.05861C51.4965 8.05861 52.6194 9.37346 52.6993 10.9538H46.9313C47.2096 9.2327 48.3005 8.05861 49.9385 8.05861H49.9417ZM52.7537 15.2183C52.3154 16.2548 51.2245 16.7731 50.108 16.7731C48.1406 16.7731 47.0209 15.4902 46.9345 13.5483H56.6407V15.2183H52.7537Z" fill="#000102"/>
<path d="M195.219 19.7226H244.818V18.7148H196.21L195.219 19.7226Z" fill="#000102"/>
<path d="M248.97 17.5537H247.367V20.0426H248.97V17.5537Z" fill="#000102"/>
<path d="M68.9688 0.00585938H77.2641C78.1375 0.00585938 78.9532 0.0954308 79.7146 0.271383C80.476 0.447336 81.1447 0.735262 81.7173 1.13515C82.2931 1.53505 82.741 2.0597 83.0673 2.70912C83.3904 3.35855 83.5536 4.16473 83.5536 5.13087C83.5536 6.46811 83.1793 7.59421 82.4275 8.51236C81.6757 9.43051 80.6328 9.99996 79.2956 10.2239V10.2783C80.2041 10.3902 80.9239 10.6302 81.4518 11.0013C81.9796 11.3724 82.3731 11.8267 82.6355 12.3641C82.8946 12.9016 83.0609 13.4966 83.1377 14.146C83.2113 14.7955 83.2497 15.4449 83.2497 16.0943V17.2364C83.2497 17.6075 83.2689 17.9562 83.3041 18.2793C83.3425 18.6056 83.4 18.9063 83.4864 19.1847C83.5696 19.463 83.6848 19.6965 83.8351 19.8789H82.4723C82.2132 19.415 82.0692 18.8712 82.0404 18.2505C82.0116 17.6299 81.9988 16.9837 81.9988 16.315C81.9988 15.6464 81.97 14.9842 81.9156 14.3252C81.8613 13.6662 81.6821 13.0775 81.3878 12.5593C81.0903 12.041 80.6232 11.6219 79.9834 11.3052C79.3435 10.9885 78.4382 10.8317 77.2705 10.8317H70.194V19.8789H68.9688V0.00585938ZM77.2641 9.77601C77.9871 9.77601 78.6589 9.68964 79.2828 9.51048C79.9034 9.33453 80.4376 9.0594 80.8823 8.6883C81.327 8.31721 81.6789 7.84373 81.9412 7.26789C82.2004 6.69204 82.3315 6.00743 82.3315 5.20765C82.3315 4.46545 82.1908 3.82882 81.9124 3.30096C81.6341 2.77311 81.263 2.34122 80.7991 2.00851C80.3353 1.6758 79.7978 1.43267 79.1836 1.28551C78.5725 1.13835 77.9295 1.06157 77.2641 1.06157H70.194V9.77282H77.2641V9.77601Z" fill="#000102"/>
<path d="M86.3604 12.8638V13.0301C86.3604 13.8651 86.4724 14.6617 86.6963 15.4231C86.9202 16.1845 87.2498 16.8531 87.688 17.4257C88.1263 18.0016 88.6734 18.4559 89.3356 18.7886C89.9946 19.1213 90.7624 19.2908 91.639 19.2908C93.0722 19.2908 94.2079 18.9165 95.0429 18.1647C95.881 17.4129 96.4569 16.37 96.7736 15.0328H97.8325C97.5158 16.7027 96.8344 17.9824 95.7882 18.8749C94.7389 19.7643 93.3537 20.2122 91.6262 20.2122C90.5673 20.2122 89.6459 20.0202 88.8557 19.6427C88.0655 19.262 87.4097 18.7438 86.8787 18.0848C86.3508 17.4257 85.9541 16.6483 85.695 15.7462C85.4359 14.8472 85.3047 13.8779 85.3047 12.8382C85.3047 11.7985 85.4391 10.8771 85.7078 9.95896C85.9765 9.04081 86.3796 8.23462 86.9171 7.53721C87.4545 6.843 88.1263 6.28635 88.9357 5.86726C89.7419 5.45137 90.692 5.24023 91.7893 5.24023C92.7907 5.24023 93.6768 5.42578 94.4478 5.79688C95.2188 6.16798 95.8618 6.67345 96.3833 7.31328C96.9015 7.9531 97.2982 8.6953 97.567 9.53987C97.8357 10.3844 97.9701 11.2898 97.9701 12.2527C97.9701 12.3455 97.9637 12.4511 97.9573 12.5727C97.9477 12.6942 97.9445 12.7902 97.9445 12.8638H86.3668H86.3604ZM96.8824 11.9456C96.844 11.165 96.716 10.4292 96.4921 9.73182C96.2681 9.03761 95.9386 8.42338 95.5003 7.89552C95.062 7.36766 94.5342 6.94537 93.9104 6.62866C93.2865 6.31194 92.5763 6.15519 91.7765 6.15519C90.9192 6.15519 90.1674 6.31834 89.5147 6.64146C88.8621 6.96457 88.3151 7.39325 87.8672 7.92111C87.4193 8.44897 87.077 9.0664 86.8339 9.77341C86.5907 10.4804 86.4436 11.2034 86.386 11.9456H96.8792H96.8824Z" fill="#000102"/>
<path d="M100.702 8.85845H100.756C100.868 8.50655 101.054 8.11626 101.313 7.69077C101.572 7.26529 101.918 6.86859 102.346 6.50709C102.775 6.14559 103.29 5.84487 103.895 5.60174C104.499 5.3618 105.194 5.24023 105.974 5.24023C107.071 5.24023 108.025 5.44498 108.834 5.85127C109.644 6.26076 110.312 6.80781 110.843 7.49243C111.374 8.18024 111.768 8.97683 112.03 9.88538C112.289 10.7939 112.42 11.7505 112.42 12.7518C112.42 13.8459 112.289 14.8504 112.03 15.759C111.771 16.6675 111.374 17.4513 110.843 18.1104C110.312 18.7694 109.644 19.2844 108.834 19.6555C108.025 20.0266 107.071 20.2122 105.974 20.2122C104.784 20.2122 103.722 19.9531 102.794 19.4316C101.866 18.9101 101.185 18.0688 100.756 16.8979H100.702V24.9981H99.6719V5.56974H100.702V8.85526V8.85845ZM105.977 19.294C106.908 19.294 107.711 19.1181 108.39 18.7662C109.068 18.4143 109.628 17.9408 110.063 17.3458C110.501 16.7507 110.824 16.0597 111.038 15.2727C111.253 14.4857 111.358 13.6444 111.358 12.755C111.358 11.9392 111.256 11.1362 111.051 10.346C110.846 9.55906 110.53 8.85206 110.101 8.23143C109.672 7.61079 109.119 7.10853 108.441 6.72783C107.762 6.34713 106.937 6.15838 105.971 6.15838C105.005 6.15838 104.211 6.34394 103.543 6.71504C102.874 7.08614 102.327 7.5788 101.911 8.18984C101.492 8.80087 101.191 9.50148 101.003 10.2917C100.817 11.0819 100.724 11.9008 100.724 12.755C100.724 13.6092 100.808 14.4313 100.974 15.2183C101.14 16.0085 101.425 16.7027 101.825 17.3042C102.225 17.9088 102.765 18.3887 103.444 18.7502C104.122 19.1117 104.963 19.294 105.971 19.294H105.977Z" fill="#000102"/>
<path d="M113.219 12.7262C113.219 11.7057 113.363 10.7459 113.651 9.84699C113.939 8.94803 114.361 8.15464 114.917 7.46683C115.474 6.77902 116.162 6.23836 116.978 5.83847C117.794 5.43858 118.731 5.24023 119.79 5.24023C120.849 5.24023 121.783 5.43858 122.602 5.83847C123.418 6.23836 124.105 6.77902 124.662 7.46683C125.219 8.15464 125.641 8.94803 125.929 9.84699C126.217 10.7459 126.361 11.7089 126.361 12.7262C126.361 13.7435 126.217 14.7129 125.929 15.6214C125.641 16.53 125.219 17.3234 124.662 18.0016C124.105 18.6798 123.418 19.2173 122.602 19.6171C121.786 20.017 120.849 20.2154 119.79 20.2154C118.731 20.2154 117.794 20.017 116.978 19.6171C116.162 19.2173 115.474 18.6798 114.917 18.0016C114.361 17.3234 113.939 16.53 113.651 15.6214C113.363 14.7129 113.219 13.7467 113.219 12.7262ZM114.278 12.7262C114.278 13.5804 114.399 14.4026 114.639 15.1895C114.879 15.9797 115.234 16.6771 115.698 17.2914C116.162 17.9024 116.738 18.3919 117.422 18.7534C118.11 19.1149 118.897 19.2972 119.79 19.2972C120.682 19.2972 121.469 19.1149 122.157 18.7534C122.845 18.3919 123.418 17.9056 123.881 17.2914C124.345 16.6803 124.697 15.9797 124.94 15.1895C125.18 14.4026 125.302 13.5804 125.302 12.7262C125.302 11.872 125.18 11.0531 124.94 10.2629C124.7 9.47589 124.345 8.77528 123.881 8.16105C123.418 7.55001 122.842 7.06054 122.157 6.69904C121.469 6.33754 120.682 6.15519 119.79 6.15519C118.897 6.15519 118.11 6.33754 117.422 6.69904C116.735 7.06054 116.162 7.54681 115.698 8.16105C115.234 8.77208 114.882 9.47269 114.639 10.2629C114.399 11.0531 114.278 11.872 114.278 12.7262Z" fill="#000102"/>
<path d="M129.2 8.74613H129.283C129.414 8.28226 129.647 7.84718 129.993 7.43769C130.335 7.0282 130.754 6.6763 131.244 6.37878C131.736 6.08126 132.283 5.85412 132.885 5.69736C133.486 5.5406 134.113 5.47022 134.763 5.48942V6.54833C134.206 6.47475 133.57 6.52914 132.856 6.71469C132.143 6.90024 131.458 7.30973 130.812 7.93995C130.553 8.21828 130.326 8.487 130.13 8.74613C129.935 9.00526 129.772 9.29319 129.644 9.6099C129.513 9.92662 129.411 10.2785 129.337 10.6688C129.264 11.0591 129.216 11.523 129.2 12.0604V19.8823H128.141V5.5758H129.2V8.74933V8.74613Z" fill="#000102"/>
<path d="M141.864 6.49119H138.748V16.4821C138.748 17.0579 138.812 17.5122 138.943 17.8449C139.071 18.1776 139.273 18.4336 139.542 18.6095C139.81 18.7855 140.137 18.8942 140.517 18.9294C140.898 18.9678 141.34 18.9774 141.839 18.9582V19.8764C141.301 19.9148 140.777 19.9084 140.265 19.8636C139.753 19.8188 139.305 19.678 138.915 19.4477C138.524 19.2173 138.214 18.8686 137.984 18.4048C137.75 17.9409 137.654 17.3011 137.693 16.4853V6.4944H135.047V5.57625H137.693V1.12305H138.751V5.57625H141.867V6.4944L141.864 6.49119Z" fill="#000102"/>
<path d="M145.227 0.00683594H146.481L151.657 18.5714H151.711L156.971 0.00683594H158.503L163.846 18.5714H163.9L168.993 0.00683594H170.301L164.594 19.8799H163.202L157.748 1.06575H157.694L152.322 19.8799H150.959L145.227 0.00683594Z" fill="#000102"/>
<path d="M169.743 12.8638V13.0301C169.743 13.8651 169.855 14.6617 170.079 15.4231C170.303 16.1845 170.633 16.8531 171.071 17.4257C171.509 18.0016 172.056 18.4559 172.718 18.7886C173.377 19.1213 174.145 19.2908 175.022 19.2908C176.455 19.2908 177.591 18.9165 178.426 18.1647C179.264 17.4129 179.84 16.37 180.156 15.0328H181.215C180.899 16.7027 180.217 17.9824 179.171 18.8749C178.122 19.7643 176.737 20.2122 175.009 20.2122C173.95 20.2122 173.029 20.0202 172.239 19.6427C171.448 19.262 170.793 18.7438 170.261 18.0848C169.734 17.4257 169.337 16.6483 169.078 15.7462C168.819 14.8472 168.688 13.8779 168.688 12.8382C168.688 11.7985 168.822 10.8771 169.091 9.95896C169.359 9.04081 169.762 8.23462 170.3 7.53721C170.837 6.843 171.509 6.28635 172.319 5.86726C173.125 5.45137 174.075 5.24023 175.172 5.24023C176.173 5.24023 177.06 5.42578 177.831 5.79688C178.602 6.16798 179.245 6.67345 179.766 7.31328C180.284 7.9531 180.681 8.6953 180.95 9.53987C181.219 10.3844 181.353 11.2898 181.353 12.2527C181.353 12.3455 181.346 12.4511 181.34 12.5727C181.33 12.6942 181.327 12.7902 181.327 12.8638H169.75H169.743ZM180.265 11.9456C180.227 11.165 180.099 10.4292 179.875 9.73182C179.651 9.03761 179.321 8.42338 178.883 7.89552C178.445 7.36766 177.917 6.94537 177.293 6.62866C176.669 6.31194 175.959 6.15519 175.159 6.15519C174.302 6.15519 173.55 6.31834 172.898 6.64146C172.245 6.96457 171.698 7.39325 171.25 7.92111C170.802 8.44897 170.46 9.0664 170.217 9.77341C169.974 10.4804 169.826 11.2034 169.769 11.9456H180.262H180.265Z" fill="#000102"/>
<path d="M182.391 0.00640452H183.421V8.60568H183.475C183.68 8.04903 183.968 7.56276 184.339 7.14367C184.71 6.72778 185.139 6.37268 185.622 6.08476C186.105 5.79684 186.626 5.58249 187.183 5.44493C187.74 5.30417 188.319 5.23698 188.914 5.23698C189.973 5.23698 190.891 5.42254 191.662 5.79364C192.433 6.16474 193.079 6.6766 193.6 7.32602C194.122 7.97545 194.506 8.73044 194.758 9.59421C195.008 10.458 195.136 11.3889 195.136 12.3902C195.136 14.0986 194.902 15.4646 194.439 16.4947C193.975 17.5249 193.415 18.3118 192.765 18.8589C192.113 19.406 191.435 19.7674 190.728 19.9434C190.021 20.1194 189.416 20.2089 188.914 20.2089C187.964 20.2089 187.161 20.0618 186.502 19.7642C185.842 19.4667 185.299 19.1212 184.87 18.7213C184.441 18.3214 184.118 17.9279 183.894 17.5377C183.67 17.1474 183.533 16.8594 183.475 16.6739H183.421V19.873H182.391V0V0.00640452ZM188.917 19.294C189.864 19.294 190.664 19.0892 191.316 18.6829C191.966 18.2767 192.497 17.7424 192.906 17.0834C193.316 16.4244 193.613 15.6822 193.799 14.8568C193.984 14.0314 194.077 13.2092 194.077 12.3935C194.077 11.5777 193.971 10.8259 193.757 10.0837C193.543 9.34148 193.216 8.67926 192.781 8.09381C192.343 7.50837 191.806 7.0413 191.163 6.68939C190.52 6.33749 189.771 6.16153 188.917 6.16153C187.986 6.16153 187.177 6.3183 186.489 6.63501C185.801 6.95172 185.231 7.38681 184.787 7.94345C184.339 8.5001 184.006 9.15912 183.782 9.92052C183.558 10.6819 183.446 11.5073 183.446 12.3966C183.446 13.286 183.549 14.121 183.753 14.956C183.958 15.7909 184.278 16.5299 184.716 17.1698C185.155 17.8096 185.718 18.3246 186.406 18.7149C187.093 19.1052 187.932 19.3004 188.917 19.3004V19.294Z" fill="#000102"/>
</svg>
