<svg width="current" height="current" viewBox="0 0 16 16" fill="none" xmlns="http://www.w3.org/2000/svg">
<path d="M13.3033 15.4262L8 10.1229L2.6967 15.4262C2.41539 15.7075 2.03386 15.8655 1.63604 15.8655C1.23821 15.8655 0.856683 15.7075 0.575379 15.4262C0.294075 15.1449 0.136039 14.7634 0.136038 14.3655C0.136039 13.9677 0.294074 13.5862 0.575379 13.3049L5.87868 8.00159L0.575378 2.69829C0.294074 2.41698 0.136039 2.03545 0.136038 1.63763C0.136039 1.2398 0.294074 0.85827 0.575378 0.576965C0.856683 0.295661 1.23821 0.137626 1.63604 0.137626C2.03386 0.137626 2.41539 0.295661 2.6967 0.576965L8 5.88027L13.3033 0.576965C13.5846 0.29566 13.9661 0.137625 14.364 0.137625C14.7618 0.137624 15.1433 0.295661 15.4246 0.576965C15.7059 0.858269 15.864 1.2398 15.864 1.63762C15.864 2.03545 15.7059 2.41698 15.4246 2.69829L10.1213 8.00159L15.4246 13.3049C15.7059 13.5862 15.864 13.9677 15.864 14.3655C15.864 14.7634 15.7059 15.1449 15.4246 15.4262C15.1433 15.7075 14.7618 15.8655 14.364 15.8655C13.9661 15.8655 13.5846 15.7075 13.3033 15.4262Z" fill="#DDDDDD"/>
</svg>
