<svg width="current" height="current" viewBox="0 0 12 12" fill="none" xmlns="http://www.w3.org/2000/svg">
<circle cx="6" cy="6" r="6" fill="#EFEFEF"/>
<path d="M7.94952 8.78631L5.85754 6.69433L3.76557 8.78631C3.6546 8.89727 3.5041 8.95961 3.34717 8.95961C3.19024 8.95961 3.03974 8.89727 2.92877 8.78631C2.81781 8.67534 2.75547 8.52484 2.75547 8.36791C2.75547 8.21098 2.81781 8.06048 2.92877 7.94952L5.02075 5.85754L2.92877 3.76556C2.81781 3.6546 2.75547 3.50409 2.75547 3.34717C2.75547 3.19024 2.81781 3.03974 2.92877 2.92877C3.03974 2.8178 3.19024 2.75546 3.34717 2.75546C3.5041 2.75546 3.6546 2.8178 3.76557 2.92877L5.85754 5.02075L7.94952 2.92877C8.06049 2.8178 8.21099 2.75546 8.36792 2.75546C8.52485 2.75546 8.67535 2.8178 8.78631 2.92877C8.89728 3.03974 8.95962 3.19024 8.95962 3.34717C8.95962 3.50409 8.89728 3.6546 8.78631 3.76556L6.69434 5.85754L8.78631 7.94952C8.89728 8.06048 8.95962 8.21099 8.95962 8.36791C8.95962 8.52484 8.89728 8.67534 8.78631 8.78631C8.67535 8.89727 8.52485 8.95961 8.36792 8.95961C8.21099 8.95961 8.06049 8.89727 7.94952 8.78631Z" fill="#BFBFBF"/>
</svg>
