<svg width="current" height="current" viewBox="0 0 28 26" fill="none" xmlns="http://www.w3.org/2000/svg">
<rect width="28" height="26" rx="5" fill="#E6E6E6"/>
<path d="M14.6214 16.4286V13.6214H17.4286C17.5934 13.6214 17.7514 13.556 17.868 13.4394C17.9845 13.3229 18.05 13.1648 18.05 13C18.05 12.8352 17.9845 12.6771 17.868 12.5606C17.7514 12.444 17.5934 12.3786 17.4286 12.3786H14.6214V9.57143C14.6214 9.40662 14.556 9.24855 14.4394 9.13201C14.3229 9.01547 14.1648 8.95 14 8.95C13.8352 8.95 13.6771 9.01547 13.5606 9.13201C13.444 9.24855 13.3786 9.40662 13.3786 9.57143V12.3786H10.5714C10.4066 12.3786 10.2486 12.444 10.132 12.5606C10.0155 12.6771 9.95 12.8352 9.95 13C9.95 13.1648 10.0155 13.3229 10.132 13.4394C10.2486 13.556 10.4066 13.6214 10.5714 13.6214H13.3786V16.4286C13.3786 16.5934 13.444 16.7514 13.5606 16.868C13.6771 16.9845 13.8352 17.05 14 17.05C14.1648 17.05 14.3229 16.9845 14.4394 16.868C14.556 16.7514 14.6214 16.5934 14.6214 16.4286Z" fill="#CDCDCD" stroke="#CDCDCD" stroke-width="0.1"/>
</svg>
