<svg width="current" height="current" viewBox="0 0 310 120" fill="none" xmlns="http://www.w3.org/2000/svg">
<g clip-path="url(#clip0_3194_58752)">
<rect width="310" height="120" fill="white"/>
<path d="M114.156 44.566C110.834 44.566 108.2 46.1549 107.059 49.162H106.968V45.0192H99.4556V51.3961C97.6801 47.1519 93.9265 44.3367 88.2907 44.3367C83.1401 44.3367 78.6453 47.1733 76.6512 51.5614C75.2489 47.4345 72.1564 44.3367 66.9845 44.3367C64.2545 44.3367 61.9725 45.5204 60.4742 47.7491H60.3836V45.0192H47.8643L43.4016 60.407H43.3109L38.8535 45.0192H33.1644V36.1416H24.692V47.9784H13.527V36.1416H5.05469V68.6501H13.527V55.2617H24.676V68.6501H33.1484V51.7693L36.742 61.452C37.2006 62.721 38.7042 66.368 38.7042 67.6423C38.7042 69.2792 37.3819 70.2816 35.6064 70.2816H33.1537V76.5679H36.5661C41.7967 76.5679 44.5799 75.9334 46.4461 70.7402L52.9989 52.6811V76.5732H60.7408V66.1014H60.8315C62.4257 68.2395 64.6544 69.3272 67.571 69.3272C72.295 69.3272 75.3182 66.4267 76.6885 62.5557C78.6293 66.8959 82.9055 69.3272 88.4719 69.3272C93.0414 69.3272 97.4402 67.557 99.4556 63.5421V68.6501H107.197V56.9519C107.197 53.9927 109.197 51.3428 113.031 51.3428C114.076 51.3428 114.982 51.5241 115.99 51.8067V44.7473C115.398 44.6086 114.758 44.566 114.166 44.566H114.156ZM65.161 63.4142C61.6526 63.4142 60.4689 60.7269 60.4689 56.584C60.4689 51.7107 63.1082 50.2551 65.2036 50.2551C68.6214 50.2551 69.805 53.5715 69.805 56.584C69.805 59.8152 68.6267 63.4142 65.161 63.4142ZM88.2907 49.5726C90.8819 49.5726 92.7534 51.764 92.8867 54.398H83.2734C83.7372 51.5294 85.5554 49.5726 88.2853 49.5726H88.2907ZM92.9774 61.5053C92.2469 63.2329 90.4287 64.0966 88.5679 64.0966C85.2888 64.0966 83.4226 61.9586 83.2787 58.7221H99.4556V61.5053H92.9774Z" fill="#000102"/>
<path d="M46.0656 13.3848H37.3906V40.78H46.0656V13.3848Z" fill="#390E10"/>
<path d="M106.964 6H98.2891V40.7852H106.964V6Z" fill="#E73729"/>
<path d="M96.8078 7.42383H88.1328V40.7854H96.8078V7.42383Z" fill="#D62D20"/>
<path d="M86.6672 11.002H77.9922V40.7858H86.6672V11.002Z" fill="#C42A1C"/>
<path d="M76.5109 15.832H67.8359V40.7852H76.5109V15.832Z" fill="#9D1D15"/>
<path d="M66.3625 24.1016H57.6875V40.7797H66.3625V24.1016Z" fill="#79160D"/>
<path d="M56.2218 18.0449H47.5469V40.7854H56.2218V18.0449Z" fill="#68130E"/>
<path d="M215.414 104.436H298.08V102.757H217.067L215.414 104.436Z" fill="#000102"/>
<path d="M304.999 100.821H302.328V104.97H304.999V100.821Z" fill="#000102"/>
<path d="M5 71.5762H18.8256C20.2812 71.5762 21.6408 71.7255 22.9098 72.0187C24.1788 72.312 25.2931 72.7918 26.2475 73.4583C27.2073 74.1248 27.9537 74.9992 28.4976 76.0816C29.0361 77.164 29.308 78.5076 29.308 80.1178C29.308 82.3466 28.6842 84.2234 27.4312 85.7536C26.1782 87.2839 24.44 88.233 22.2113 88.6062V88.6968C23.7256 88.8834 24.9252 89.2833 25.805 89.9018C26.6848 90.5203 27.3406 91.2775 27.7778 92.1732C28.2097 93.069 28.4869 94.0607 28.6149 95.1431C28.7375 96.2254 28.8015 97.3078 28.8015 98.3902V100.294C28.8015 100.912 28.8335 101.493 28.8922 102.032C28.9561 102.576 29.0521 103.077 29.1961 103.541C29.3347 104.005 29.5266 104.394 29.7772 104.698H27.5059C27.074 103.925 26.834 103.018 26.7861 101.984C26.7381 100.949 26.7167 99.8724 26.7167 98.7581C26.7167 97.6437 26.6688 96.54 26.5781 95.4417C26.4875 94.3433 26.1889 93.3622 25.6984 92.4985C25.2025 91.6347 24.424 90.9362 23.3577 90.4084C22.2913 89.8805 20.7824 89.6193 18.8362 89.6193H7.04211V104.698H5V71.5762ZM18.8256 87.8597C20.0306 87.8597 21.1503 87.7158 22.19 87.4172C23.2244 87.1239 24.1148 86.6654 24.8559 86.0469C25.5971 85.4284 26.1836 84.6393 26.6208 83.6795C27.0527 82.7198 27.2713 81.5788 27.2713 80.2458C27.2713 79.0088 27.0367 77.9478 26.5728 77.068C26.1089 76.1882 25.4904 75.4684 24.7173 74.9139C23.9442 74.3594 23.0484 73.9542 22.0247 73.7089C21.0063 73.4637 19.9346 73.3357 18.8256 73.3357H7.04211V87.8544H18.8256V87.8597Z" fill="#000102"/>
<path d="M33.9861 93.0047V93.282C33.9861 94.6736 34.1727 96.0012 34.5459 97.2702C34.9192 98.5392 35.4683 99.6535 36.1988 100.608C36.9293 101.568 37.841 102.325 38.9447 102.879C40.0431 103.434 41.3228 103.716 42.7837 103.716C45.1724 103.716 47.0652 103.093 48.4568 101.84C49.8538 100.587 50.8135 98.8484 51.3413 96.6197H53.1062C52.5783 99.403 51.4427 101.536 49.6991 103.023C47.9503 104.506 45.6416 105.252 42.7624 105.252C40.9975 105.252 39.4619 104.932 38.1449 104.303C36.828 103.668 35.7349 102.805 34.8498 101.706C33.9701 100.608 33.3089 99.3123 32.8771 97.8087C32.4452 96.3105 32.2266 94.6949 32.2266 92.962C32.2266 91.2292 32.4505 89.6936 32.8984 88.1634C33.3463 86.6331 34.0181 85.2895 34.9138 84.1271C35.8096 82.9701 36.9293 82.0423 38.2782 81.3439C39.6219 80.6507 41.2054 80.2988 43.0343 80.2988C44.7032 80.2988 46.1801 80.6081 47.4651 81.2266C48.7501 81.8451 49.8218 82.6875 50.6909 83.7539C51.5546 84.8203 52.2158 86.0573 52.6637 87.4649C53.1115 88.8725 53.3355 90.3814 53.3355 91.9863C53.3355 92.1409 53.3248 92.3169 53.3141 92.5195C53.2982 92.7221 53.2928 92.8821 53.2928 93.0047H33.9967H33.9861ZM51.5226 91.4744C51.4587 90.1735 51.2454 88.9471 50.8721 87.7848C50.4989 86.6278 49.9497 85.6041 49.2193 84.7243C48.4888 83.8445 47.609 83.1407 46.5693 82.6129C45.5296 82.085 44.3459 81.8238 43.013 81.8238C41.584 81.8238 40.331 82.0957 39.2433 82.6342C38.1556 83.1727 37.2439 83.8872 36.4974 84.7669C35.7509 85.6467 35.1804 86.6758 34.7752 87.8541C34.37 89.0325 34.1247 90.2374 34.0287 91.4744H51.5173H51.5226Z" fill="#000102"/>
<path d="M57.8809 86.3292H57.9716C58.1582 85.7427 58.4674 85.0922 58.8993 84.383C59.3312 83.6739 59.907 83.0128 60.6215 82.4102C61.336 81.8077 62.1944 81.3066 63.2021 80.9013C64.2099 80.5014 65.3669 80.2988 66.6679 80.2988C68.4967 80.2988 70.0856 80.6401 71.4346 81.3172C72.7835 81.9997 73.8979 82.9115 74.783 84.0525C75.6681 85.1988 76.3239 86.5265 76.7611 88.0407C77.193 89.555 77.4116 91.1492 77.4116 92.8181C77.4116 94.6416 77.193 96.3158 76.7611 97.83C76.3292 99.3443 75.6681 100.651 74.783 101.749C73.8979 102.847 72.7835 103.706 71.4346 104.324C70.0856 104.943 68.4967 105.252 66.6679 105.252C64.6844 105.252 62.9142 104.82 61.368 103.951C59.8217 103.082 58.686 101.68 57.9716 99.7282H57.8809V113.229H56.1641V80.848H57.8809V86.3239V86.3292ZM66.6732 103.722C68.2248 103.722 69.5631 103.429 70.6934 102.842C71.8238 102.256 72.7569 101.466 73.482 100.475C74.2125 99.4829 74.751 98.3313 75.1082 97.0196C75.4655 95.708 75.6414 94.3057 75.6414 92.8234C75.6414 91.4638 75.4708 90.1255 75.1296 88.8085C74.7883 87.4969 74.2605 86.3185 73.546 85.2841C72.8315 84.2498 71.9091 83.4126 70.7787 82.7781C69.6484 82.1437 68.2728 81.8291 66.6625 81.8291C65.0523 81.8291 63.73 82.1383 62.6156 82.7568C61.5013 83.3753 60.5895 84.1964 59.8964 85.2148C59.1979 86.2332 58.6967 87.4009 58.3821 88.7179C58.0729 90.0348 57.9183 91.3998 57.9183 92.8234C57.9183 94.247 58.0569 95.6173 58.3341 96.929C58.6114 98.2459 59.0859 99.4029 59.7524 100.405C60.4189 101.413 61.32 102.213 62.4503 102.815C63.5807 103.418 64.983 103.722 66.6625 103.722H66.6732Z" fill="#000102"/>
<path d="M78.7578 92.7754C78.7578 91.0746 78.9977 89.475 79.4776 87.9767C79.9575 86.4785 80.6613 85.1562 81.589 84.0098C82.5168 82.8635 83.6631 81.9624 85.0228 81.2959C86.3824 80.6294 87.9446 80.2988 89.7095 80.2988C91.4743 80.2988 93.0313 80.6294 94.3962 81.2959C95.7558 81.9624 96.9022 82.8635 97.8299 84.0098C98.7577 85.1562 99.4615 86.4785 99.9414 87.9767C100.421 89.475 100.661 91.0799 100.661 92.7754C100.661 94.471 100.421 96.0865 99.9414 97.6008C99.4615 99.115 98.7577 100.437 97.8299 101.568C96.9022 102.698 95.7558 103.594 94.3962 104.26C93.0366 104.927 91.4743 105.257 89.7095 105.257C87.9446 105.257 86.3824 104.927 85.0228 104.26C83.6631 103.594 82.5168 102.698 81.589 101.568C80.6613 100.437 79.9575 99.115 79.4776 97.6008C78.9977 96.0865 78.7578 94.4763 78.7578 92.7754ZM80.5227 92.7754C80.5227 94.199 80.7253 95.5693 81.1252 96.881C81.5251 98.198 82.1169 99.3603 82.89 100.384C83.6631 101.402 84.6229 102.218 85.7639 102.821C86.9103 103.423 88.2219 103.727 89.7095 103.727C91.1971 103.727 92.5087 103.423 93.6551 102.821C94.8014 102.218 95.7558 101.408 96.529 100.384C97.3021 99.3656 97.8886 98.198 98.2938 96.881C98.6937 95.5693 98.8963 94.199 98.8963 92.7754C98.8963 91.3518 98.6937 89.9869 98.2938 88.6699C97.8939 87.3582 97.3021 86.1906 96.529 85.1668C95.7558 84.1484 94.7961 83.3327 93.6551 82.7302C92.5087 82.1277 91.1971 81.8238 89.7095 81.8238C88.2219 81.8238 86.9103 82.1277 85.7639 82.7302C84.6175 83.3327 83.6631 84.1431 82.89 85.1668C82.1169 86.1852 81.5304 87.3529 81.1252 88.6699C80.7253 89.9869 80.5227 91.3518 80.5227 92.7754Z" fill="#000102"/>
<path d="M105.39 86.143H105.528C105.747 85.3698 106.136 84.6447 106.712 83.9622C107.283 83.2797 107.981 82.6932 108.797 82.1974C109.618 81.7015 110.53 81.3229 111.532 81.0617C112.535 80.8004 113.58 80.6831 114.662 80.7151V82.48C113.734 82.3573 112.673 82.448 111.484 82.7572C110.295 83.0665 109.154 83.749 108.077 84.7993C107.645 85.2632 107.267 85.7111 106.941 86.143C106.616 86.5748 106.344 87.0547 106.131 87.5826C105.912 88.1104 105.742 88.6969 105.619 89.3474C105.496 89.9979 105.417 90.771 105.39 91.6668V104.703H103.625V80.8591H105.39V86.1483V86.143Z" fill="#000102"/>
<path d="M126.487 82.3844H121.294V99.0359C121.294 99.9956 121.401 100.753 121.619 101.307C121.833 101.862 122.168 102.288 122.616 102.582C123.064 102.875 123.608 103.056 124.243 103.115C124.877 103.179 125.613 103.195 126.445 103.163V104.693C125.549 104.757 124.674 104.746 123.821 104.672C122.968 104.597 122.222 104.362 121.571 103.979C120.921 103.595 120.404 103.013 120.02 102.24C119.63 101.467 119.47 100.401 119.534 99.0412V82.3897H115.125V80.8595H119.534V73.4375H121.299V80.8595H126.493V82.3897L126.487 82.3844Z" fill="#000102"/>
<path d="M132.102 71.5762H134.192L142.819 102.517H142.909L151.675 71.5762H154.229L163.133 102.517H163.224L171.712 71.5762H173.893L164.381 104.698H162.061L152.971 73.341H152.88L143.928 104.698H141.656L132.102 71.5762Z" fill="#000102"/>
<path d="M172.963 93.0047V93.282C172.963 94.6736 173.149 96.0012 173.522 97.2702C173.896 98.5392 174.445 99.6535 175.175 100.608C175.906 101.568 176.818 102.325 177.921 102.879C179.02 103.434 180.299 103.716 181.76 103.716C184.149 103.716 186.042 103.093 187.433 101.84C188.83 100.587 189.79 98.8484 190.318 96.6197H192.083C191.555 99.403 190.419 101.536 188.676 103.023C186.927 104.506 184.618 105.252 181.739 105.252C179.974 105.252 178.438 104.932 177.121 104.303C175.805 103.668 174.711 102.805 173.826 101.706C172.947 100.608 172.285 99.3123 171.854 97.8087C171.422 96.3105 171.203 94.6949 171.203 92.962C171.203 91.2292 171.427 89.6936 171.875 88.1634C172.323 86.6331 172.995 85.2895 173.89 84.1271C174.786 82.9701 175.906 82.0423 177.255 81.3439C178.598 80.6507 180.182 80.2988 182.011 80.2988C183.68 80.2988 185.157 80.6081 186.442 81.2266C187.727 81.8451 188.798 82.6875 189.667 83.7539C190.531 84.8203 191.192 86.0573 191.64 87.4649C192.088 88.8725 192.312 90.3814 192.312 91.9863C192.312 92.1409 192.301 92.3169 192.291 92.5195C192.275 92.7221 192.269 92.8821 192.269 93.0047H172.973H172.963ZM190.499 91.4744C190.435 90.1735 190.222 88.9471 189.849 87.7848C189.475 86.6278 188.926 85.6041 188.196 84.7243C187.465 83.8445 186.586 83.1407 185.546 82.6129C184.506 82.085 183.322 81.8238 181.99 81.8238C180.561 81.8238 179.308 82.0957 178.22 82.6342C177.132 83.1727 176.22 83.8872 175.474 84.7669C174.727 85.6467 174.157 86.6758 173.752 87.8541C173.347 89.0325 173.101 90.2374 173.005 91.4744H190.494H190.499Z" fill="#000102"/>
<path d="M194.031 71.5761H195.748V85.9082H195.839C196.18 84.9805 196.66 84.17 197.278 83.4715C197.897 82.7784 198.611 82.1865 199.416 81.7067C200.222 81.2268 201.091 80.8696 202.018 80.6403C202.946 80.4057 203.911 80.2937 204.903 80.2937C206.668 80.2937 208.198 80.603 209.483 81.2215C210.768 81.84 211.845 82.6931 212.714 83.7754C213.583 84.8578 214.223 86.1161 214.644 87.5557C215.06 88.9954 215.273 90.5469 215.273 92.2158C215.273 95.063 214.884 97.3397 214.111 99.0566C213.338 100.773 212.405 102.085 211.323 102.997C210.235 103.909 209.104 104.511 207.926 104.804C206.748 105.098 205.74 105.247 204.903 105.247C203.319 105.247 201.981 105.002 200.883 104.506C199.784 104.01 198.878 103.434 198.163 102.768C197.449 102.101 196.91 101.445 196.537 100.795C196.164 100.144 195.935 99.6644 195.839 99.3552H195.748V104.687H194.031V71.5654V71.5761ZM204.908 103.722C206.487 103.722 207.819 103.381 208.907 102.704C209.99 102.026 210.875 101.136 211.557 100.038C212.24 98.9393 212.735 97.7023 213.045 96.3267C213.354 94.9511 213.509 93.5808 213.509 92.2211C213.509 90.8615 213.333 89.6085 212.975 88.3715C212.618 87.1345 212.074 86.0308 211.349 85.0551C210.619 84.0794 209.723 83.3009 208.651 82.7144C207.58 82.1279 206.332 81.8346 204.908 81.8346C203.357 81.8346 202.008 82.0959 200.861 82.6238C199.715 83.1516 198.766 83.8767 198.025 84.8045C197.278 85.7322 196.724 86.8306 196.351 88.0996C195.977 89.3686 195.791 90.7442 195.791 92.2265C195.791 93.7087 195.961 95.1003 196.303 96.492C196.644 97.8836 197.177 99.1153 197.908 100.182C198.638 101.248 199.576 102.106 200.723 102.757C201.869 103.407 203.266 103.733 204.908 103.733V103.722Z" fill="#000102"/>
</g>
<defs>
<clipPath id="clip0_3194_58752">
<rect width="310" height="120" fill="white"/>
</clipPath>
</defs>
</svg>
