<svg width="current" height="current" viewBox="0 0 20 20" fill="none" xmlns="http://www.w3.org/2000/svg">
<path d="M10 4C11.1046 4 12 3.10457 12 2C12 0.89543 11.1046 0 10 0C8.89543 0 8 0.89543 8 2C8 3.10457 8.89543 4 10 4Z" fill="#D6D6D6"/>
<path d="M10 12C11.1046 12 12 11.1046 12 10C12 8.89543 11.1046 8 10 8C8.89543 8 8 8.89543 8 10C8 11.1046 8.89543 12 10 12Z" fill="#D6D6D6"/>
<path d="M10 20C11.1046 20 12 19.1046 12 18C12 16.8954 11.1046 16 10 16C8.89543 16 8 16.8954 8 18C8 19.1046 8.89543 20 10 20Z" fill="#D6D6D6"/>
</svg>
