<svg width="24" height="24" viewBox="0 0 24 24" fill="none" xmlns="http://www.w3.org/2000/svg">
<path d="M9.28906 9.05263V6.52632C9.28906 5.12842 10.4175 4 11.8154 4C13.2133 4 14.3417 5.12842 14.3417 6.52632V9.05263" stroke="#272727" stroke-width="1.5" stroke-linecap="round" stroke-linejoin="round"/>
<path d="M11.8147 9.5241C14.3386 9.5241 16.3962 11.5817 16.3962 14.1057C16.3962 16.6296 14.3386 18.6873 11.8147 18.6873C9.29069 18.6873 7.23308 16.6296 7.23308 14.1057C7.23308 11.5817 9.29069 9.5241 11.8147 9.5241ZM11.8147 8.16094C8.5281 8.16094 5.86992 10.8191 5.86992 14.1057C5.86992 17.3922 8.5281 20.0504 11.8147 20.0504C15.1012 20.0504 17.7594 17.3922 17.7594 14.1057C17.7594 10.8191 15.1012 8.16094 11.8147 8.16094Z" fill="#272727" stroke="#272727" stroke-width="0.1"/>
<path d="M13.0771 13.4741C13.0771 12.7765 12.5116 12.2109 11.8139 12.2109C11.1163 12.2109 10.5508 12.7765 10.5508 13.4741C10.5508 14.1717 11.1163 14.7373 11.8139 14.7373C12.5116 14.7373 13.0771 14.1717 13.0771 13.4741Z" fill="#272727"/>
<path d="M11.8135 13.4727V15.999" stroke="#272727" stroke-width="1.5" stroke-miterlimit="10" stroke-linecap="round"/>
</svg>
