<svg width="current" height="current" viewBox="0 0 40 40" fill="none" xmlns="http://www.w3.org/2000/svg">
<g filter="url(#filter0_d_818_62309)">
<rect x="4" y="4" width="32" height="32" rx="16" fill="#D6D6D6"/>
<rect x="4.5" y="4.5" width="31" height="31" rx="15.5" stroke="white"/>
</g>
<path d="M24.9 16H15.1C13.9402 16 13 16.9594 13 18.1429V23.8571C13 25.0406 13.9402 26 15.1 26H24.9C26.0598 26 27 25.0406 27 23.8571V18.1429C27 16.9594 26.0598 16 24.9 16Z" stroke="white" stroke-width="1.20395" stroke-linecap="round" stroke-linejoin="round"/>
<path d="M17.6429 14H22.3571C22.7086 14 23 14.272 23 14.6V16H17V14.6C17 14.272 17.2914 14 17.6429 14Z" stroke="white" stroke-width="1.20395" stroke-linecap="round" stroke-linejoin="round"/>
<path d="M20 24C21.6569 24 23 22.6569 23 21C23 19.3431 21.6569 18 20 18C18.3431 18 17 19.3431 17 21C17 22.6569 18.3431 24 20 24Z" stroke="white" stroke-width="1.20395" stroke-miterlimit="10"/>
<path d="M23.2344 17.5312H25.2344" stroke="white" stroke-width="1.20395" stroke-miterlimit="10"/>
<defs>
<filter id="filter0_d_818_62309" x="0" y="0" width="40" height="40" filterUnits="userSpaceOnUse" color-interpolation-filters="sRGB">
<feFlood flood-opacity="0" result="BackgroundImageFix"/>
<feColorMatrix in="SourceAlpha" type="matrix" values="0 0 0 0 0 0 0 0 0 0 0 0 0 0 0 0 0 0 127 0" result="hardAlpha"/>
<feOffset/>
<feGaussianBlur stdDeviation="2"/>
<feComposite in2="hardAlpha" operator="out"/>
<feColorMatrix type="matrix" values="0 0 0 0 0 0 0 0 0 0 0 0 0 0 0 0 0 0 0.1 0"/>
<feBlend mode="normal" in2="BackgroundImageFix" result="effect1_dropShadow_818_62309"/>
<feBlend mode="normal" in="SourceGraphic" in2="effect1_dropShadow_818_62309" result="shape"/>
</filter>
</defs>
</svg>
