<svg width="current" height="current" viewBox="0 0 24 24" fill="none" xmlns="http://www.w3.org/2000/svg">
<path d="M14 12C14 12.5304 13.7893 13.0391 13.4142 13.4142C13.0391 13.7893 12.5304 14 12 14C11.4696 14 10.9609 13.7893 10.5858 13.4142C10.2107 13.0391 10 12.5304 10 12C10 11.4696 10.2107 10.9609 10.5858 10.5858C10.9609 10.2107 11.4696 10 12 10C12.5304 10 13.0391 10.2107 13.4142 10.5858C13.7893 10.9609 14 11.4696 14 12Z" fill="#D6D6D6"/>
<path d="M6 12C6.96 9.65886 9.2016 8 12 8C14.7984 8 17.04 9.65886 18 12C17.04 14.3411 14.7984 16 12 16C9.2016 16 6.96 14.3411 6 12Z" stroke="#D6D6D6" stroke-width="0.84" stroke-linecap="round" stroke-linejoin="round"/>
</svg>
