<svg width="current" height="current" viewBox="0 0 12 12" fill="none" xmlns="http://www.w3.org/2000/svg">
<g clip-path="url(#clip0_3078_215406)">
<path d="M11.25 6H7.5C7.08579 6 6.75 6.33579 6.75 6.75V11.25C6.75 11.6642 7.08579 12 7.5 12H11.25C11.6642 12 12 11.6642 12 11.25V6.75C12 6.33579 11.6642 6 11.25 6Z" fill="#AAAAAA"/>
<path d="M11.25 0H7.5C7.08579 0 6.75 0.335786 6.75 0.75V4.125C6.75 4.53921 7.08579 4.875 7.5 4.875H11.25C11.6642 4.875 12 4.53921 12 4.125V0.75C12 0.335786 11.6642 0 11.25 0Z" fill="#AAAAAA"/>
<path d="M4.5 0H0.75C0.335786 0 0 0.335786 0 0.75V5.25C0 5.66421 0.335786 6 0.75 6H4.5C4.91421 6 5.25 5.66421 5.25 5.25V0.75C5.25 0.335786 4.91421 0 4.5 0Z" fill="#AAAAAA"/>
<path d="M4.5 7.125H0.75C0.335786 7.125 0 7.46079 0 7.875V11.25C0 11.6642 0.335786 12 0.75 12H4.5C4.91421 12 5.25 11.6642 5.25 11.25V7.875C5.25 7.46079 4.91421 7.125 4.5 7.125Z" fill="#AAAAAA"/>
</g>
<defs>
<clipPath id="clip0_3078_215406">
<rect width="12" height="12" fill="white"/>
</clipPath>
</defs>
</svg>
