<svg width="current" height="current" viewBox="0 0 16 16" fill="none" xmlns="http://www.w3.org/2000/svg">
<path d="M2.02549 11.3764L4.61721 13.9681L7.32789 13.9936C7.6083 13.9936 7.88022 13.8831 8.08416 13.6877L12.2394 9.53243L13.3611 8.41077C14.1938 7.57802 14.1768 6.21843 13.3356 5.37718L10.6249 2.6665C9.78364 1.82526 8.42406 1.80826 7.59131 2.64101L6.46965 3.76267L2.30591 7.90942C2.11047 8.10486 2 8.37678 2 8.66569L2.02549 11.3764Z" fill="white" stroke="#D6D6D6" stroke-width="1.5" stroke-linecap="round" stroke-linejoin="round"/>
<path d="M7.67609 2.55098L5.72168 4.50539L11.4914 10.2751L13.4458 8.32074C14.2276 7.53897 14.1766 6.22187 13.3269 5.38063L10.6162 2.66995C9.77495 1.8287 8.45785 1.76922 7.67609 2.55098Z" fill="white" stroke="#D6D6D6" stroke-width="1.5" stroke-linecap="round" stroke-linejoin="round"/>
<path d="M2.0336 12.874C2.0336 13.4688 2.52645 13.9531 3.11277 13.9531H4.60832L2.0166 11.3784V12.874H2.0336Z" fill="#D6D6D6" stroke="#D6D6D6" stroke-width="1.5" stroke-linecap="round" stroke-linejoin="round"/>
</svg>
