<svg width="current" height="current" viewBox="0 0 16 16" fill="none" xmlns="http://www.w3.org/2000/svg">
<path d="M2.02549 11.3763L4.61721 13.9681L7.32789 13.9935C7.6083 13.9935 7.88022 13.8831 8.08416 13.6876L12.2394 9.5324L13.3611 8.41074C14.1938 7.57799 14.1768 6.2184 13.3356 5.37715L10.6249 2.66647C9.78364 1.82523 8.42406 1.80823 7.59131 2.64098L6.46965 3.76264L2.30591 7.90939C2.11047 8.10483 2 8.37675 2 8.66566L2.02549 11.3763Z" fill="white" stroke="#D6D6D6" stroke-width="1.5" stroke-linecap="round" stroke-linejoin="round"/>
<path d="M7.67706 2.55098L5.72266 4.50539L11.4924 10.2751L13.4468 8.32074C14.2286 7.53897 14.1776 6.22187 13.3279 5.38063L10.6172 2.66995C9.77593 1.8287 8.45883 1.76922 7.67706 2.55098Z" fill="white" stroke="#D6D6D6" stroke-width="1.5" stroke-linecap="round" stroke-linejoin="round"/>
<path d="M2.03262 12.874C2.03262 13.4688 2.52547 13.9531 3.11179 13.9531H4.60734L2.01562 11.3784V12.874H2.03262Z" fill="#D6D6D6" stroke="#D6D6D6" stroke-width="1.5" stroke-linecap="round" stroke-linejoin="round"/>
</svg>
