<svg width="current" height="current" viewBox="0 0 16 16" fill="none" xmlns="http://www.w3.org/2000/svg">
<rect width="16" height="16" fill="white"/>
<path d="M13.0018 14H2.99818C2.44727 14 2 13.5527 2 13.0018V2.99818C2 2.44727 2.44727 2 2.99818 2H11L14 5V13.0018C14 13.5527 13.5527 14 13.0018 14Z" stroke="#7D7D7D" stroke-width="1.2" stroke-miterlimit="10" stroke-linejoin="round"/>
<path d="M10.25 10H5.75C5.33579 10 5 10.3258 5 10.7277V13.2723C5 13.6742 5.33579 14 5.75 14H10.25C10.6642 14 11 13.6742 11 13.2723V10.7277C11 10.3258 10.6642 10 10.25 10Z" stroke="#7D7D7D" stroke-width="1.2" stroke-linecap="round" stroke-linejoin="round"/>
<path d="M10 4H5V2H10V4Z" stroke="#7D7D7D" stroke-width="1.2" stroke-linejoin="round"/>
</svg>
