<svg width="current" height="current" viewBox="0 0 16 16" fill="none" xmlns="http://www.w3.org/2000/svg">
<path d="M9.4248 2V5.20733C9.4248 5.40716 9.58467 5.56703 9.78451 5.56703H12.9918" stroke="#7D7D7D" stroke-width="1.2" stroke-linecap="round" stroke-linejoin="round"/>
<path d="M9.42465 2H3.3597C3.15987 2 3 2.15987 3 2.3597V13.6203C3 13.8301 3.15987 14 3.3597 14H12.642C12.8418 14 13.0017 13.8301 13.0017 13.6203V5.57702C11.6028 4.17818 10.8235 3.39883 9.43464 2.00999L9.42465 2Z" stroke="#7D7D7D" stroke-width="1.2" stroke-linecap="round" stroke-linejoin="round"/>
<path d="M9.94727 12.2035V9H12.0004V9.4823H10.5225V10.3584H11.8588V10.8407H10.5225V12.2035H9.94727Z" fill="#7D7D7D"/>
<path d="M7.88537 12.2035H6.79688V9H7.90307C8.85882 9 9.43847 9.60177 9.43847 10.5973C9.43847 11.5973 8.85882 12.2035 7.88537 12.2035ZM7.3721 11.7035H7.8544C8.52254 11.7035 8.86325 11.3363 8.86325 10.5973C8.86325 9.86283 8.52254 9.5 7.8721 9.5H7.3721V11.7035Z" fill="#7D7D7D"/>
<path d="M4 12.2035V9H5.20354C5.93805 9 6.33186 9.4469 6.33186 10.0619C6.33186 10.677 5.93363 11.1195 5.19469 11.1195H4.57522V12.2035H4ZM4.57522 10.646H5.11504C5.54867 10.646 5.74336 10.4027 5.74336 10.0619C5.74336 9.71681 5.54867 9.4823 5.11504 9.4823H4.57522V10.646Z" fill="#7D7D7D"/>
</svg>
