<svg width="current" height="current" viewBox="0 0 16 16" fill="none" xmlns="http://www.w3.org/2000/svg">
<path d="M9.31641 9.91711C9.31641 8.63213 10.4045 8.30053 11.42 8.22799C11.7931 8.20208 12.6376 8.15545 12.9019 8.14508L12.8915 7.69949C12.8915 7.06736 12.5081 6.69431 11.7516 6.69431C11.0988 6.69431 10.705 6.99483 10.591 7.40933H9.49257C9.5962 6.47669 10.4667 5.80312 11.7931 5.80312C12.6843 5.80312 14.0003 6.13472 14.0003 7.76167V11.5026H12.9226V10.7358H12.8812C12.6636 11.1606 12.1454 11.627 11.2128 11.627C10.1454 11.627 9.31641 11.0156 9.31641 9.91711ZM10.3941 9.92747C10.3941 10.4663 10.8397 10.7461 11.4615 10.7461C12.363 10.7461 12.9019 10.1451 12.9019 9.47151V8.95338C12.6428 8.9741 11.8345 9.0311 11.5755 9.04664C10.8501 9.09845 10.3941 9.36788 10.3941 9.92747Z" fill="#7D7D7D"/>
<path d="M3.21244 11.5026H2L4.6943 4H6.01036L8.71503 11.5026H7.50259L6.81865 9.52332H3.89637L3.21244 11.5026ZM4.22798 8.56995H6.48705L5.37824 5.36788H5.32643L4.22798 8.56995Z" fill="#7D7D7D"/>
</svg>
