<svg width="current" height="current" viewBox="0 0 16 16" fill="none" xmlns="http://www.w3.org/2000/svg">
<path d="M9.31641 9.91709C9.31641 8.63212 10.4045 8.30051 11.42 8.22797C11.7931 8.20206 12.6376 8.15543 12.9019 8.14507L12.8915 7.69947C12.8915 7.06735 12.5081 6.69429 11.7516 6.69429C11.0988 6.69429 10.705 6.99481 10.591 7.40932H9.49257C9.5962 6.47668 10.4667 5.8031 11.7931 5.8031C12.6843 5.8031 14.0003 6.13471 14.0003 7.76165V11.5026H12.9226V10.7357H12.8812C12.6636 11.1606 12.1454 11.6269 11.2128 11.6269C10.1454 11.6269 9.31641 11.0155 9.31641 9.91709ZM10.3941 9.92745C10.3941 10.4663 10.8397 10.7461 11.4615 10.7461C12.363 10.7461 12.9019 10.1451 12.9019 9.47149V8.95336C12.6428 8.97409 11.8345 9.03108 11.5755 9.04662C10.8501 9.09844 10.3941 9.36787 10.3941 9.92745Z" fill="#D6D6D6"/>
<path d="M3.21244 11.5026H2L4.6943 4H6.01036L8.71503 11.5026H7.50259L6.81865 9.52332H3.89637L3.21244 11.5026ZM4.22798 8.56995H6.48705L5.37824 5.36788H5.32643L4.22798 8.56995Z" fill="#D6D6D6"/>
</svg>
