<svg width="current" height="current" viewBox="0 0 16 16" fill="none" xmlns="http://www.w3.org/2000/svg">
<path d="M12.5 5L12.5 2" stroke="#272727" stroke-width="1.2" stroke-miterlimit="10" stroke-linecap="round"/>
<path d="M11 3.5L14 3.5" stroke="#272727" stroke-width="1.2" stroke-miterlimit="10" stroke-linecap="round"/>
<path d="M9 6C9 4.89543 8.10457 4 7 4C5.89543 4 5 4.89543 5 6C5 7.10457 5.89543 8 7 8C8.10457 8 9 7.10457 9 6Z" stroke="#272727" stroke-width="1.2" stroke-linecap="round" stroke-linejoin="round"/>
<path d="M2.6 12.5714C2.6 10.9314 3.93137 9.6 5.57143 9.6H8.42857C10.0686 9.6 11.4 10.9314 11.4 12.5714C11.4 13.0258 11.0258 13.4 10.5714 13.4H3.42857C2.97423 13.4 2.6 13.0258 2.6 12.5714Z" stroke="#272727" stroke-width="1.2" stroke-linecap="round" stroke-linejoin="round"/>
</svg>
