<svg width="current" height="current" viewBox="0 0 36 36" fill="none" xmlns="http://www.w3.org/2000/svg">
<g filter="url(#filter0_d_714_58675)">
<rect x="4" y="4" width="28" height="28" rx="6" fill="#E42313"/>
</g>
<g clip-path="url(#clip0_714_58675)">
<path d="M25 18H20C19.4477 18 19 18.4477 19 19V25C19 25.5523 19.4477 26 20 26H25C25.5523 26 26 25.5523 26 25V19C26 18.4477 25.5523 18 25 18Z" fill="white"/>
<path d="M25 10H20C19.4477 10 19 10.4477 19 11V15.5C19 16.0523 19.4477 16.5 20 16.5H25C25.5523 16.5 26 16.0523 26 15.5V11C26 10.4477 25.5523 10 25 10Z" fill="white"/>
<path d="M16 10H11C10.4477 10 10 10.4477 10 11V17C10 17.5523 10.4477 18 11 18H16C16.5523 18 17 17.5523 17 17V11C17 10.4477 16.5523 10 16 10Z" fill="white"/>
<path d="M16 19.5H11C10.4477 19.5 10 19.9477 10 20.5V25C10 25.5523 10.4477 26 11 26H16C16.5523 26 17 25.5523 17 25V20.5C17 19.9477 16.5523 19.5 16 19.5Z" fill="white"/>
</g>
<defs>
<filter id="filter0_d_714_58675" x="0" y="0" width="36" height="36" filterUnits="userSpaceOnUse" color-interpolation-filters="sRGB">
<feFlood flood-opacity="0" result="BackgroundImageFix"/>
<feColorMatrix in="SourceAlpha" type="matrix" values="0 0 0 0 0 0 0 0 0 0 0 0 0 0 0 0 0 0 127 0" result="hardAlpha"/>
<feOffset/>
<feGaussianBlur stdDeviation="2"/>
<feComposite in2="hardAlpha" operator="out"/>
<feColorMatrix type="matrix" values="0 0 0 0 1 0 0 0 0 1 0 0 0 0 1 0 0 0 0.35 0"/>
<feBlend mode="normal" in2="BackgroundImageFix" result="effect1_dropShadow_714_58675"/>
<feBlend mode="normal" in="SourceGraphic" in2="effect1_dropShadow_714_58675" result="shape"/>
</filter>
<clipPath id="clip0_714_58675">
<rect width="16" height="16" fill="white" transform="translate(10 10)"/>
</clipPath>
</defs>
</svg>
