<svg width="current" height="current" viewBox="0 0 16 16" fill="none" xmlns="http://www.w3.org/2000/svg">
<g clip-path="url(#clip0_1_976)">
<path d="M15 8H10C9.44772 8 9 8.44772 9 9V15C9 15.5523 9.44772 16 10 16H15C15.5523 16 16 15.5523 16 15V9C16 8.44772 15.5523 8 15 8Z" fill="#D6D6D6"/>
<path d="M15 0H10C9.44772 0 9 0.447715 9 1V5.5C9 6.05228 9.44772 6.5 10 6.5H15C15.5523 6.5 16 6.05228 16 5.5V1C16 0.447715 15.5523 0 15 0Z" fill="#D6D6D6"/>
<path d="M6 0H1C0.447715 0 0 0.447715 0 1V7C0 7.55228 0.447715 8 1 8H6C6.55228 8 7 7.55228 7 7V1C7 0.447715 6.55228 0 6 0Z" fill="#D6D6D6"/>
<path d="M6 9.5H1C0.447715 9.5 0 9.94772 0 10.5V15C0 15.5523 0.447715 16 1 16H6C6.55228 16 7 15.5523 7 15V10.5C7 9.94772 6.55228 9.5 6 9.5Z" fill="#D6D6D6"/>
</g>
<defs>
<clipPath id="clip0_1_976">
<rect width="16" height="16" fill="white"/>
</clipPath>
</defs>
</svg>
