<svg width="current" height="current" viewBox="0 0 36 36" fill="none" xmlns="http://www.w3.org/2000/svg">
<g filter="url(#filter0_d_714_58674)">
<rect x="4" y="4" width="28" height="28" rx="6" fill="#E42313"/>
</g>
<g clip-path="url(#clip0_714_58674)">
<path d="M18 10C13.58 10 10 13.58 10 18C10 22.42 13.58 26 18 26C22.42 26 26 22.42 26 18C26 13.58 22.42 10 18 10ZM20.65 20.65C20.5 20.8 20.31 20.87 20.12 20.87C19.93 20.87 19.74 20.8 19.59 20.65L17.47 18.53C17.4 18.46 17.35 18.38 17.31 18.29C17.27 18.2 17.25 18.1 17.25 18V13.5C17.25 13.09 17.59 12.75 18 12.75C18.41 12.75 18.75 13.09 18.75 13.5V17.69L20.65 19.59C20.94 19.88 20.94 20.36 20.65 20.65Z" fill="white"/>
</g>
<defs>
<filter id="filter0_d_714_58674" x="0" y="0" width="36" height="36" filterUnits="userSpaceOnUse" color-interpolation-filters="sRGB">
<feFlood flood-opacity="0" result="BackgroundImageFix"/>
<feColorMatrix in="SourceAlpha" type="matrix" values="0 0 0 0 0 0 0 0 0 0 0 0 0 0 0 0 0 0 127 0" result="hardAlpha"/>
<feOffset/>
<feGaussianBlur stdDeviation="2"/>
<feComposite in2="hardAlpha" operator="out"/>
<feColorMatrix type="matrix" values="0 0 0 0 0.894118 0 0 0 0 0.137255 0 0 0 0 0.0745098 0 0 0 0.14 0"/>
<feBlend mode="normal" in2="BackgroundImageFix" result="effect1_dropShadow_714_58674"/>
<feBlend mode="normal" in="SourceGraphic" in2="effect1_dropShadow_714_58674" result="shape"/>
</filter>
<clipPath id="clip0_714_58674">
<rect width="16" height="16" fill="white" transform="translate(10 10)"/>
</clipPath>
</defs>
</svg>
