<svg width="current" height="current" viewBox="0 0 16 16" fill="none" xmlns="http://www.w3.org/2000/svg">
<path d="M14.8193 4.0025L9.48593 0.450281C8.58537 -0.150094 7.42464 -0.150094 6.52408 0.450281L1.19074 4.0025C0.450281 4.49281 0 5.33333 0 6.22389V13.3383C0 14.8093 1.19074 16 2.66166 16H13.3383C14.8093 16 16 14.8093 16 13.3383V6.22389C16 5.33333 15.5497 4.50281 14.8093 4.0025H14.8193ZM10.2564 9.00563H5.7536C5.34334 9.00563 5.00313 8.66542 5.00313 8.25516C5.00313 7.8449 5.34334 7.50469 5.7536 7.50469H10.2564C10.6667 7.50469 11.0069 7.8449 11.0069 8.25516C11.0069 8.66542 10.6667 9.00563 10.2564 9.00563Z" fill="#D6D6D6"/>
</svg>
