<svg width="current" height="current" viewBox="0 0 32 32" fill="none" xmlns="http://www.w3.org/2000/svg">
<rect x="2" y="2" width="28" height="28" rx="6" fill="white"/>
<path d="M22.8193 12.0025L17.4859 8.45028C16.5854 7.84991 15.4246 7.84991 14.5241 8.45028L9.19074 12.0025C8.45028 12.4928 8 13.3333 8 14.2239V21.3383C8 22.8093 9.19074 24 10.6617 24H21.3383C22.8093 24 24 22.8093 24 21.3383V14.2239C24 13.3333 23.5497 12.5028 22.8093 12.0025H22.8193ZM18.2564 17.0056H13.7536C13.3433 17.0056 13.0031 16.6654 13.0031 16.2552C13.0031 15.8449 13.3433 15.5047 13.7536 15.5047H18.2564C18.6667 15.5047 19.0069 15.8449 19.0069 16.2552C19.0069 16.6654 18.6667 17.0056 18.2564 17.0056Z" fill="#D6D6D6"/>
</svg>
