<svg width="current" height="current" viewBox="0 0 36 36" fill="none" xmlns="http://www.w3.org/2000/svg">
<g filter="url(#filter0_d_742_63465)">
<rect x="4" y="4" width="28" height="28" rx="6" fill="#E42313"/>
</g>
<path d="M26 16.6661L24.4371 16.2735C24.2844 15.7065 24.0591 15.1686 23.7756 14.667L24.6043 13.2858L22.7142 11.3957L21.333 12.2244C20.8387 11.9337 20.3008 11.7156 19.7265 11.5629L19.3339 10H16.6661L16.2735 11.5629C15.7065 11.7156 15.1686 11.9409 14.667 12.2244L13.2858 11.3957L11.3957 13.2858L12.2244 14.667C11.9337 15.1613 11.7156 15.6992 11.5629 16.2735L10 16.6661V19.3339L11.5629 19.7265C11.7156 20.2935 11.9409 20.8314 12.2244 21.333L11.3957 22.7142L13.2858 24.6043L14.667 23.7756C15.1613 24.0663 15.6992 24.2844 16.2735 24.4371L16.6661 26H19.3339L19.7265 24.4371C20.2935 24.2844 20.8314 24.0591 21.333 23.7756L22.7142 24.6043L24.6043 22.7142L23.7756 21.333C24.0663 20.8387 24.2844 20.3008 24.4371 19.7265L26 19.3339V16.6661Z" fill="white"/>
<circle cx="18" cy="18" r="5" fill="#E42313"/>
<defs>
<filter id="filter0_d_742_63465" x="0" y="0" width="36" height="36" filterUnits="userSpaceOnUse" color-interpolation-filters="sRGB">
<feFlood flood-opacity="0" result="BackgroundImageFix"/>
<feColorMatrix in="SourceAlpha" type="matrix" values="0 0 0 0 0 0 0 0 0 0 0 0 0 0 0 0 0 0 127 0" result="hardAlpha"/>
<feOffset/>
<feGaussianBlur stdDeviation="2"/>
<feComposite in2="hardAlpha" operator="out"/>
<feColorMatrix type="matrix" values="0 0 0 0 1 0 0 0 0 1 0 0 0 0 1 0 0 0 0.35 0"/>
<feBlend mode="normal" in2="BackgroundImageFix" result="effect1_dropShadow_742_63465"/>
<feBlend mode="normal" in="SourceGraphic" in2="effect1_dropShadow_742_63465" result="shape"/>
</filter>
</defs>
</svg>
