<svg width="current" height="current" viewBox="0 0 32 32" fill="none" xmlns="http://www.w3.org/2000/svg">
<rect x="2" y="2" width="28" height="28" rx="6" fill="white"/>
<path d="M24 14.6661L22.4371 14.2735C22.2844 13.7065 22.0591 13.1686 21.7756 12.667L22.6043 11.2858L20.7142 9.39573L19.333 10.2244C18.8387 9.93367 18.3008 9.71558 17.7265 9.56293L17.3339 8H14.6661L14.2735 9.56293C13.7065 9.71558 13.1686 9.94094 12.667 10.2244L11.2858 9.39573L9.39573 11.2858L10.2244 12.667C9.93367 13.1613 9.71558 13.6992 9.56293 14.2735L8 14.6661V17.3339L9.56293 17.7265C9.71558 18.2935 9.94094 18.8314 10.2244 19.333L9.39573 20.7142L11.2858 22.6043L12.667 21.7756C13.1613 22.0663 13.6992 22.2844 14.2735 22.4371L14.6661 24H17.3339L17.7265 22.4371C18.2935 22.2844 18.8314 22.0591 19.333 21.7756L20.7142 22.6043L22.6043 20.7142L21.7756 19.333C22.0663 18.8387 22.2844 18.3008 22.4371 17.7265L24 17.3339V14.6661Z" fill="#D6D6D6"/>
<circle cx="16" cy="16" r="5" fill="white"/>
</svg>
