<svg width="current" height="current" viewBox="0 0 16 14" fill="none" xmlns="http://www.w3.org/2000/svg">
<path d="M13.3333 0H2.66667C1.19333 0 0 1.19333 0 2.66667V8C0 9.47333 1.19333 10.6667 2.66667 10.6667H5.76C6.30667 12.22 7.78667 13.3333 9.52667 13.3333V10.6667H13.3333C14.8067 10.6667 16 9.47333 16 8V2.66667C16 1.19333 14.8067 0 13.3333 0Z" fill="#D6D6D6"/>
<path d="M3.39551 6.37109C3.84424 6.37109 4.20801 6.00733 4.20801 5.55859C4.20801 5.10986 3.84424 4.74609 3.39551 4.74609C2.94678 4.74609 2.58301 5.10986 2.58301 5.55859C2.58301 6.00733 2.94678 6.37109 3.39551 6.37109Z" fill="white"/>
<path d="M7.73047 6.37109C8.1792 6.37109 8.54297 6.00733 8.54297 5.55859C8.54297 5.10986 8.1792 4.74609 7.73047 4.74609C7.28174 4.74609 6.91797 5.10986 6.91797 5.55859C6.91797 6.00733 7.28174 6.37109 7.73047 6.37109Z" fill="white"/>
<path d="M12.0625 6.37109C12.5112 6.37109 12.875 6.00733 12.875 5.55859C12.875 5.10986 12.5112 4.74609 12.0625 4.74609C11.6138 4.74609 11.25 5.10986 11.25 5.55859C11.25 6.00733 11.6138 6.37109 12.0625 6.37109Z" fill="white"/>
</svg>
