<svg width="current" height="current" viewBox="0 0 32 32" fill="none" xmlns="http://www.w3.org/2000/svg">
<rect x="2" y="2" width="28" height="28" rx="6" fill="white"/>
<path d="M21.3333 9H10.6667C9.19333 9 8 10.1933 8 11.6667V17C8 18.4733 9.19333 19.6667 10.6667 19.6667H13.76C14.3067 21.22 15.7867 22.3333 17.5267 22.3333V19.6667H21.3333C22.8067 19.6667 24 18.4733 24 17V11.6667C24 10.1933 22.8067 9 21.3333 9Z" fill="#D6D6D6"/>
<path d="M11.3945 15.3711C11.8433 15.3711 12.207 15.0073 12.207 14.5586C12.207 14.1099 11.8433 13.7461 11.3945 13.7461C10.9458 13.7461 10.582 14.1099 10.582 14.5586C10.582 15.0073 10.9458 15.3711 11.3945 15.3711Z" fill="white"/>
<path d="M15.7305 15.3711C16.1792 15.3711 16.543 15.0073 16.543 14.5586C16.543 14.1099 16.1792 13.7461 15.7305 13.7461C15.2817 13.7461 14.918 14.1099 14.918 14.5586C14.918 15.0073 15.2817 15.3711 15.7305 15.3711Z" fill="white"/>
<path d="M20.0625 15.3711C20.5112 15.3711 20.875 15.0073 20.875 14.5586C20.875 14.1099 20.5112 13.7461 20.0625 13.7461C19.6138 13.7461 19.25 14.1099 19.25 14.5586C19.25 15.0073 19.6138 15.3711 20.0625 15.3711Z" fill="white"/>
<circle cx="26" cy="6" r="2" fill="#E42313"/>
</svg>
