<svg width="24" height="24" viewBox="0 0 24 24" fill="none" xmlns="http://www.w3.org/2000/svg">
<path d="M19 13V16.5C19 18.4338 17.4338 20 15.5 20H8.5C6.56625 20 5 18.4338 5 16.5V9.5C5 7.56625 6.56625 6 8.5 6H12" stroke="#272727" stroke-width="1.5" stroke-miterlimit="10" stroke-linecap="round"/>
<path d="M9 13L9 17" stroke="#272727" stroke-width="1.5" stroke-miterlimit="10" stroke-linecap="round"/>
<path d="M12 10V17" stroke="#272727" stroke-width="1.5" stroke-miterlimit="10" stroke-linecap="round"/>
<path d="M15 15L15 17" stroke="#272727" stroke-width="1.5" stroke-miterlimit="10" stroke-linecap="round"/>
<path d="M20 7.49977L19.4139 7.35257C19.3567 7.13994 19.2721 6.93821 19.1658 6.75011L19.4766 6.23217L18.7678 5.5234L18.2499 5.83417C18.0645 5.72513 17.8628 5.64334 17.6474 5.5861L17.5002 5H16.4998L16.3526 5.5861C16.1399 5.64334 15.9382 5.72785 15.7501 5.83417L15.2322 5.5234L14.5234 6.23217L14.8342 6.75011C14.7251 6.93548 14.6433 7.13721 14.5861 7.35257L14 7.49977V8.50023L14.5861 8.64743C14.6433 8.86006 14.7279 9.06179 14.8342 9.24989L14.5234 9.76783L15.2322 10.4766L15.7501 10.1658C15.9355 10.2749 16.1372 10.3567 16.3526 10.4139L16.4998 11H17.5002L17.6474 10.4139C17.8601 10.3567 18.0618 10.2721 18.2499 10.1658L18.7678 10.4766L19.4766 9.76783L19.1658 9.24989C19.2749 9.06452 19.3567 8.86279 19.4139 8.64743L20 8.50023V7.49977Z" fill="#272727"/>
<circle cx="17.0045" cy="8.00056" r="1.28571" fill="white"/>
</svg>
