<svg width="24" height="24" viewBox="0 0 24 24" fill="none" xmlns="http://www.w3.org/2000/svg">
<g clip-path="url(#clip0_1005_76251)">
<path d="M16 4H8C5.79 4 4 5.79 4 8V16C4 17.49 4.82 18.77 6.03 19.46C6.01 19.36 6 19.25 6 19.14C6 16.77 7.92 14.85 10.29 14.85H13.72C16.09 14.85 18.01 16.77 18.01 19.14C18.01 19.25 18 19.36 17.98 19.46C19.19 18.77 20.01 17.49 20.01 16V8C20.01 5.79 18.22 4 16.01 4H16ZM12 12.28C10.58 12.28 9.43 11.13 9.43 9.71C9.43 8.29 10.58 7.14 12 7.14C13.42 7.14 14.57 8.29 14.57 9.71C14.57 11.13 13.42 12.28 12 12.28Z" stroke="#272727" stroke-width="1.5" stroke-linecap="round" stroke-linejoin="round"/>
<path d="M11.9997 12.2806C13.4191 12.2806 14.5697 11.13 14.5697 9.71063C14.5697 8.29125 13.4191 7.14062 11.9997 7.14062C10.5803 7.14062 9.42969 8.29125 9.42969 9.71063C9.42969 11.13 10.5803 12.2806 11.9997 12.2806Z" fill="white" stroke="#272727" stroke-width="1.5" stroke-linecap="round" stroke-linejoin="round"/>
<path d="M13.7102 14.8594H10.2802C7.91023 14.8594 5.99023 16.7794 5.99023 19.1494C5.99023 19.2594 6.00023 19.3694 6.02023 19.4694C6.60023 19.7994 7.27023 20.0094 7.99023 20.0094H15.9902C16.7102 20.0094 17.3702 19.8094 17.9602 19.4694C17.9802 19.3694 17.9902 19.2594 17.9902 19.1494C17.9902 16.7794 16.0702 14.8594 13.7002 14.8594H13.7102Z" fill="white" stroke="#272727" stroke-width="1.5" stroke-linecap="round" stroke-linejoin="round"/>
</g>
<defs>
<clipPath id="clip0_1005_76251">
<rect width="18" height="18" fill="white" transform="translate(3 3)"/>
</clipPath>
</defs>
</svg>
