<svg width="current" height="current" viewBox="0 0 24 24" fill="none" xmlns="http://www.w3.org/2000/svg">
<path d="M9.30664 7.59375V15.0604" stroke="#272727" stroke-width="1.5" stroke-linecap="round" stroke-linejoin="round"/>
<path d="M7.64008 14.7539C7.60674 14.9406 7.58008 15.1339 7.58008 15.3339C7.58008 17.1739 9.07341 18.6672 10.9134 18.6672C12.5534 18.6672 13.9134 17.4739 14.1867 15.9072L7.74008 14.7806" stroke="#272727" stroke-width="1.5" stroke-miterlimit="10" stroke-linecap="round"/>
<path d="M18.4133 6.02133L9.33333 7.608L6.16 8.16133C4.90667 8.38133 4 9.37466 4 10.528V12.1347C4 13.2613 4.86 14.2213 6.06 14.4747C6.09333 14.4813 6.12667 14.4947 6.16 14.5013L12.6067 15.628L18.4133 16.6413C19.2333 16.788 20 16.2147 20 15.4547V7.208C20 6.448 19.2333 5.88133 18.4133 6.02133Z" stroke="#272727" stroke-width="1.5" stroke-miterlimit="10" stroke-linecap="round"/>
</svg>
