<svg width="24" height="24" viewBox="0 0 24 24" fill="none" xmlns="http://www.w3.org/2000/svg">
<g clip-path="url(#clip0_1005_77841)">
<path d="M14 4V8.5C14 8.78 14.22 9 14.5 9H19" stroke="#272727" stroke-width="1.5" stroke-miterlimit="10"/>
<path d="M14 4H5.5C5.22 4 5 4.22 5 4.5V19.5C5 19.78 5.22 20 5.5 20H18.5C18.78 20 19 19.78 19 19.5V9C17.05 7.05 15.95 5.95 14 4Z" stroke="#272727" stroke-width="1.5" stroke-linecap="round" stroke-linejoin="round"/>
<path d="M12 11H10.6667H8" fill="#E42313"/>
<path d="M12 11H10.6667H8" stroke="#272727" stroke-width="1.5" stroke-linecap="round" stroke-linejoin="round"/>
<path d="M16 14H12H8" fill="#E42313"/>
<path d="M16 14H12H8" stroke="#272727" stroke-width="1.5" stroke-linecap="round" stroke-linejoin="round"/>
<path d="M14 17H12H8" fill="#E42313"/>
<path d="M14 17H12H8" stroke="#272727" stroke-width="1.5" stroke-linecap="round" stroke-linejoin="round"/>
</g>
<defs>
<clipPath id="clip0_1005_77841">
<rect width="16" height="18" fill="white" transform="translate(4 3)"/>
</clipPath>
</defs>
</svg>
