<svg width="24" height="24" viewBox="0 0 24 24" fill="none" xmlns="http://www.w3.org/2000/svg">
<g clip-path="url(#clip0_1533_18887)">
<path d="M19.3141 12.0018C19.3141 7.96064 16.041 4.6875 11.9998 4.6875C7.95869 4.6875 4.68555 7.96064 4.68555 12.0018C4.68555 16.0429 7.95869 19.3161 11.9998 19.3161C12.7587 19.3161 13.4901 19.1972 14.1758 18.9869C17.1564 18.0635 19.3141 15.2841 19.3141 12.0018Z" fill="white" stroke="#272727" stroke-width="1.5" stroke-linecap="round" stroke-linejoin="round"/>
<path d="M15.658 12.0018C15.658 7.96064 14.0215 4.6875 12.0009 4.6875C9.98032 4.6875 8.34375 7.96064 8.34375 12.0018C8.34375 16.0429 9.98032 19.3161 12.0009 19.3161C12.3758 19.3161 12.7415 19.1972 13.0889 18.9869C14.5792 18.0635 15.658 15.2841 15.658 12.0018Z" fill="white" stroke="#272727" stroke-width="1.5" stroke-linecap="round" stroke-linejoin="round"/>
<path d="M12 4.6875V19.3161" stroke="#272727" stroke-width="1.5" stroke-linecap="round" stroke-linejoin="round"/>
<path d="M5.10547 9.55859H18.8563" stroke="#272727" stroke-width="1.5" stroke-linecap="round" stroke-linejoin="round"/>
<path d="M5.10547 14.4414H18.8563" stroke="#272727" stroke-width="1.5" stroke-linecap="round" stroke-linejoin="round"/>
</g>
<defs>
<clipPath id="clip0_1533_18887">
<rect width="16" height="16" fill="white" transform="translate(4 4)"/>
</clipPath>
</defs>
</svg>
