<svg width="current" height="current" viewBox="0 0 16 16" fill="none" xmlns="http://www.w3.org/2000/svg">
<g id="Frame 349">
<g id="Group 2161">
<path id="Vector" d="M8 3C8.55228 3 9 2.55228 9 2C9 1.44772 8.55228 1 8 1C7.44772 1 7 1.44772 7 2C7 2.55228 7.44772 3 8 3Z" stroke="#272727" stroke-width="1.2" stroke-miterlimit="10" stroke-linecap="round"/>
<path id="Vector_2" d="M8 3C5.792 3 4 4.792 4 7V10C4 10.552 4.448 11 5 11H11C11.552 11 12 10.552 12 10V7C12 4.792 10.208 3 8 3Z" stroke="#272727" stroke-width="1.2" stroke-miterlimit="10" stroke-linecap="round"/>
<path id="Vector_3" d="M3 11H13" stroke="#272727" stroke-width="1.2" stroke-miterlimit="10" stroke-linecap="round"/>
<path id="Vector_4" d="M6 11H10V12C10 13.1 9.1 14 8 14C6.9 14 6 13.1 6 12V11Z" stroke="#272727" stroke-width="1.2" stroke-miterlimit="10" stroke-linecap="round"/>
</g>
</g>
</svg>
