<svg width="current" height="current" viewBox="0 0 28 28" fill="none" xmlns="http://www.w3.org/2000/svg">
<rect x="0.5" y="0.5" width="27" height="27" rx="13.5" fill="#D6D6D6" stroke="white"/>
<path d="M18.8538 10.5714C18.8538 9.15127 17.7025 8 16.2824 8C14.8622 8 13.7109 9.15127 13.7109 10.5714C13.7109 11.9916 14.8622 13.1429 16.2824 13.1429C17.7025 13.1429 18.8538 11.9916 18.8538 10.5714Z" fill="white"/>
<path d="M10.2812 18.2857C10.2812 15.92 12.2013 14 14.567 14H17.9955C20.3612 14 22.2812 15.92 22.2812 18.2857C22.2812 19.2286 21.5098 20 20.567 20H11.9955C11.0527 20 10.2812 19.2286 10.2812 18.2857Z" fill="white"/>
<path d="M15.0011 10.5714C15.0011 8.91457 13.658 7.57143 12.0011 7.57143C10.3443 7.57143 9.00112 8.91457 9.00112 10.5714C9.00112 12.2283 10.3443 13.5714 12.0011 13.5714C13.658 13.5714 15.0011 12.2283 15.0011 10.5714Z" fill="white" stroke="#D6D6D6" stroke-width="0.857143" stroke-linecap="round" stroke-linejoin="round"/>
<path d="M10.2857 13.5714C7.68331 13.5714 5.57143 15.6833 5.57143 18.2857C5.57143 19.4653 6.53474 20.4286 7.71429 20.4286H16.2857C17.4653 20.4286 18.4286 19.4653 18.4286 18.2857C18.4286 15.6833 16.3167 13.5714 13.7143 13.5714H10.2857Z" fill="white" stroke="#D6D6D6" stroke-width="0.857143" stroke-linecap="round" stroke-linejoin="round"/>
</svg>
