<svg width="current" height="current" viewBox="0 0 13 13" fill="none" xmlns="http://www.w3.org/2000/svg">
<g id="Group 2086">
<g id="Group 2085">
<path id="Vector" d="M10.5 4L10.5 1" stroke="#272727" stroke-width="1.2" stroke-miterlimit="10" stroke-linecap="round"/>
<path id="Vector_2" d="M9 2.5L12 2.5" stroke="#272727" stroke-width="1.2" stroke-miterlimit="10" stroke-linecap="round"/>
</g>
<path id="Vector_3" d="M7 5C7 3.89543 6.10457 3 5 3C3.89543 3 3 3.89543 3 5C3 6.10457 3.89543 7 5 7C6.10457 7 7 6.10457 7 5Z" stroke="#272727" stroke-width="1.2" stroke-linecap="round" stroke-linejoin="round"/>
<path id="Vector_4" d="M0.6 11.5714C0.6 9.93137 1.93137 8.6 3.57143 8.6H6.42857C8.06863 8.6 9.4 9.93137 9.4 11.5714C9.4 12.0258 9.02577 12.4 8.57143 12.4H1.42857C0.974228 12.4 0.6 12.0258 0.6 11.5714Z" stroke="#272727" stroke-width="1.2" stroke-linecap="round" stroke-linejoin="round"/>
</g>
</svg>
