<svg width="16" height="16" viewBox="0 0 16 16" fill="none" xmlns="http://www.w3.org/2000/svg">
<path d="M3.5 14L12.5 14C13.3284 14 14 13.3284 14 12.5L14 3.5C14 2.67157 13.3284 2 12.5 2L3.5 2C2.67157 2 2 2.67157 2 3.5L2 12.5C2 13.3284 2.67157 14 3.5 14Z" fill="white" stroke="#272727" stroke-width="1.2" stroke-linecap="round" stroke-linejoin="round"/>
<path d="M3.67895 2L12.321 2C13.243 2 14 2.8 14 3.792L14 6L8 6L2 6L2 3.792C2 2.808 2.74953 2 3.67895 2Z" fill="white" stroke="#272727" stroke-width="1.2" stroke-linecap="round" stroke-linejoin="round"/>
<path d="M10.75 9.54146L10.2127 9.40652C10.1603 9.21161 10.0828 9.02669 9.98535 8.85427L10.2702 8.37949L9.62051 7.72978L9.14573 8.01465C8.97581 7.9147 8.79089 7.83973 8.59348 7.78726L8.45854 7.25H7.54146L7.40652 7.78726C7.21161 7.83973 7.02669 7.9172 6.85427 8.01465L6.37949 7.72978L5.72978 8.37949L6.01465 8.85427C5.9147 9.02419 5.83973 9.20911 5.78726 9.40652L5.25 9.54146V10.4585L5.78726 10.5935C5.83973 10.7884 5.9172 10.9733 6.01465 11.1457L5.72978 11.6205L6.37949 12.2702L6.85427 11.9853C7.02419 12.0853 7.20911 12.1603 7.40652 12.2127L7.54146 12.75H8.45854L8.59348 12.2127C8.78839 12.1603 8.97331 12.0828 9.14573 11.9853L9.62051 12.2702L10.2702 11.6205L9.98535 11.1457C10.0853 10.9758 10.1603 10.7909 10.2127 10.5935L10.75 10.4585V9.54146Z" fill="#272727"/>
<circle cx="7.99888" cy="10.0028" r="1.17857" fill="white"/>
</svg>
