<svg width="16" height="16" viewBox="0 0 16 16" fill="none" xmlns="http://www.w3.org/2000/svg">
<path d="M10.9944 2H4.99813C3.34166 2 2 3.34166 2 4.99813V10.9944C2 12.1112 2.61462 13.0706 3.52155 13.5878C3.50656 13.5128 3.49906 13.4304 3.49906 13.3479C3.49906 11.5715 4.93816 10.1324 6.71455 10.1324H9.28545C11.0618 10.1324 12.5009 11.5715 12.5009 13.3479C12.5009 13.4304 12.4934 13.5128 12.4785 13.5878C13.3854 13.0706 14 12.1112 14 10.9944V4.99813C14 3.34166 12.6583 2 11.0019 2H10.9944ZM7.99625 8.20612C6.93192 8.20612 6.06996 7.34416 6.06996 6.27983C6.06996 5.21549 6.93192 4.35353 7.99625 4.35353C9.06059 4.35353 9.92255 5.21549 9.92255 6.27983C9.92255 7.34416 9.06059 8.20612 7.99625 8.20612Z" stroke="#7D7D7D" stroke-width="1.2" stroke-linecap="round" stroke-linejoin="round"/>
<path d="M7.9927 8.20611C9.05657 8.20611 9.919 7.34368 9.919 6.27981C9.919 5.21595 9.05657 4.35352 7.9927 4.35352C6.92884 4.35352 6.06641 5.21595 6.06641 6.27981C6.06641 7.34368 6.92884 8.20611 7.9927 8.20611Z" stroke="#7D7D7D" stroke-width="1.2" stroke-linecap="round" stroke-linejoin="round"/>
<path d="M9.27466 10.1387H6.70377C4.92738 10.1387 3.48828 11.5778 3.48828 13.3542C3.48828 13.4366 3.49578 13.5191 3.51077 13.594C3.9455 13.8414 4.44768 13.9988 4.98734 13.9988H10.9836C11.5233 13.9988 12.018 13.8489 12.4602 13.594C12.4752 13.5191 12.4827 13.4366 12.4827 13.3542C12.4827 11.5778 11.0436 10.1387 9.26717 10.1387H9.27466Z" stroke="#7D7D7D" stroke-width="1.2" stroke-linecap="round" stroke-linejoin="round"/>
</svg>
