<svg width="current" height="current" viewBox="0 0 16 16" fill="none" xmlns="http://www.w3.org/2000/svg">
<path d="M5 4.5V10.1" stroke="#7D7D7D" stroke-width="1.2" stroke-linecap="round" stroke-linejoin="round"/>
<path d="M4.7325 9.56445C4.7075 9.70445 4.6875 9.84945 4.6875 9.99945C4.6875 11.3795 5.8075 12.4995 7.1875 12.4995C8.4175 12.4995 9.4375 11.6045 9.6425 10.4295L4.8075 9.58445" stroke="#7D7D7D" stroke-width="1.2" stroke-miterlimit="10" stroke-linecap="round"/>
<path d="M12.81 3.016L6 4.206L3.62 4.621C2.68 4.786 2 5.531 2 6.396V7.601C2 8.446 2.645 9.166 3.545 9.356C3.57 9.361 3.595 9.371 3.62 9.376L8.455 10.221L12.81 10.981C13.425 11.091 14 10.661 14 10.091V3.906C14 3.336 13.425 2.911 12.81 3.016Z" stroke="#7D7D7D" stroke-width="1.2" stroke-miterlimit="10" stroke-linecap="round"/>
</svg>
