<svg width="16" height="16" viewBox="0 0 16 16" fill="none" xmlns="http://www.w3.org/2000/svg">
<g clip-path="url(#clip0_3415_54429)">
<path d="M9.5 1.75V5.125C9.5 5.335 9.665 5.5 9.875 5.5H13.25" stroke="#272727" stroke-width="1.2" stroke-miterlimit="10"/>
<path d="M9.5 1.75H3.125C2.915 1.75 2.75 1.915 2.75 2.125V13.375C2.75 13.585 2.915 13.75 3.125 13.75H12.875C13.085 13.75 13.25 13.585 13.25 13.375V5.5C11.7875 4.0375 10.9625 3.2125 9.5 1.75Z" stroke="#272727" stroke-width="1.2" stroke-linecap="round" stroke-linejoin="round"/>
<path d="M8 7H7H5" fill="#E42313"/>
<path d="M8 7H7H5" stroke="#272727" stroke-width="1.2" stroke-linecap="round" stroke-linejoin="round"/>
<path d="M11 9.25H8H5" fill="#E42313"/>
<path d="M11 9.25H8H5" stroke="#272727" stroke-width="1.2" stroke-linecap="round" stroke-linejoin="round"/>
<path d="M9.5 11.5H8H5" fill="#E42313"/>
<path d="M9.5 11.5H8H5" stroke="#272727" stroke-width="1.2" stroke-linecap="round" stroke-linejoin="round"/>
</g>
<defs>
<clipPath id="clip0_3415_54429">
<rect width="12" height="13.5" fill="white" transform="translate(2 1)"/>
</clipPath>
</defs>
</svg>
