<svg width="16" height="16" viewBox="0 0 16 16" fill="none" xmlns="http://www.w3.org/2000/svg">
<rect x="2.6" y="2.6" width="4.4" height="4.4" rx="0.9" stroke="#7D7D7D" stroke-width="1.2"/>
<rect x="2.6" y="9.00234" width="4.4" height="4.4" rx="0.9" stroke="#7D7D7D" stroke-width="1.2"/>
<rect x="8.99844" y="9.00234" width="4.4" height="4.4" rx="0.9" stroke="#7D7D7D" stroke-width="1.2"/>
<path d="M14 4.29146L13.4627 4.15652C13.4103 3.96161 13.3328 3.77669 13.2353 3.60427L13.5202 3.12949L12.8705 2.47978L12.3957 2.76465C12.2258 2.6647 12.0409 2.58973 11.8435 2.53726L11.7085 2H10.7915L10.6565 2.53726C10.4616 2.58973 10.2767 2.6672 10.1043 2.76465L9.62949 2.47978L8.97978 3.12949L9.26465 3.60427C9.1647 3.77419 9.08973 3.95911 9.03726 4.15652L8.5 4.29146V5.20854L9.03726 5.34348C9.08973 5.53839 9.1672 5.72331 9.26465 5.89573L8.97978 6.37051L9.62949 7.02022L10.1043 6.73535C10.2742 6.8353 10.4591 6.91027 10.6565 6.96274L10.7915 7.5H11.7085L11.8435 6.96274C12.0384 6.91027 12.2233 6.8328 12.3957 6.73535L12.8705 7.02022L13.5202 6.37051L13.2353 5.89573C13.3353 5.72581 13.4103 5.54089 13.4627 5.34348L14 5.20854V4.29146Z" fill="#7D7D7D"/>
<circle cx="11.2489" cy="4.75279" r="1.17857" fill="white"/>
</svg>
