<svg width="16" height="16" viewBox="0 0 16 16" fill="none" xmlns="http://www.w3.org/2000/svg">
<path d="M14 8C14 4.685 11.315 2 8 2C4.685 2 2 4.685 2 8C2 11.315 4.685 14 8 14C8.6225 14 9.2225 13.9025 9.785 13.73C12.23 12.9725 14 10.6925 14 8Z" stroke="#7D7D7D" stroke-width="1.2" stroke-linecap="round" stroke-linejoin="round"/>
<path d="M11 8C11 4.685 9.6575 2 8 2C6.3425 2 5 4.685 5 8C5 11.315 6.3425 14 8 14C8.3075 14 8.6075 13.9025 8.8925 13.73C10.115 12.9725 11 10.6925 11 8Z" stroke="#7D7D7D" stroke-width="1.2" stroke-linecap="round" stroke-linejoin="round"/>
<path d="M8 2V14" stroke="#7D7D7D" stroke-width="1.2" stroke-linecap="round" stroke-linejoin="round"/>
<path d="M2.34375 5.99805H13.6237" stroke="#7D7D7D" stroke-width="1.2" stroke-linecap="round" stroke-linejoin="round"/>
<path d="M2.34375 10.002H13.6237" stroke="#7D7D7D" stroke-width="1.2" stroke-linecap="round" stroke-linejoin="round"/>
</svg>
